<svg width="18" height="16" viewBox="0 0 18 16" fill="none" xmlns="http://www.w3.org/2000/svg">
<path d="M17 13.6C17 14.0244 16.8468 14.4314 16.574 14.7314C16.3012 15.0315 15.9312 15.2 15.5455 15.2H2.45455C2.06878 15.2 1.69881 15.0315 1.42603 14.7314C1.15325 14.4314 1 14.0244 1 13.6V4.80005C1 4.3757 1.15325 3.96874 1.42603 3.66868C1.69881 3.36862 2.06878 3.20005 2.45455 3.20005H5.36364L6.81818 0.800049H11.1818L12.6364 3.20005H15.5455C15.9312 3.20005 16.3012 3.36862 16.574 3.66868C16.8468 3.96874 17 4.3757 17 4.80005V13.6Z" stroke="#D946EF" stroke-width="1.4" stroke-linecap="round" stroke-linejoin="round"/>
<path d="M8.99991 12.0001C10.6066 12.0001 11.909 10.5674 11.909 8.8001C11.909 7.03279 10.6066 5.6001 8.99991 5.6001C7.39326 5.6001 6.09082 7.03279 6.09082 8.8001C6.09082 10.5674 7.39326 12.0001 8.99991 12.0001Z" stroke="#D946EF" stroke-width="1.4" stroke-linecap="round" stroke-linejoin="round"/>
</svg>
